<svg xmlns="http://www.w3.org/2000/svg" viewBox="0 0 380.82 20"><defs><style>.cls-1{fill:none;stroke:#000;stroke-linecap:round;stroke-linejoin:round;stroke-width:1.57px;}</style></defs><g id="objects"><path class="cls-1" d="M266.72,155.76c2.38,1.53,1.85,6.09-.87,6.86-2.54.72-4.8-.18-6.8-2.93-1.67-2.28-.8-6.2,1.56-7.75,10.41-6.87,19.61,9.77,8.82,15.73-4.33,2.39-9.9.43-13.8-2.62s-6.85-7.15-10.68-10.29-9.17-5.25-13.72-3.32a9,9,0,0,0-1.4,15.86c2.64,1.73,6.41,1.85,8.82-.18s2.78-6.25.39-8.31-6.95-.56-7.23,2.58" transform="translate(-59.59 -149.52)"/><line class="cls-1" x1="214.67" y1="10" x2="380.04" y2="10"/><line class="cls-1" x1="0.79" y1="10" x2="166.15" y2="10"/><polygon points="47.99 3.85 32.05 10 47.99 16.15 56.59 10 47.99 3.85"/><polygon points="332.83 3.85 348.78 10 332.83 16.15 324.23 10 332.83 3.85"/><path d="M181.77,155.59c-3.29,0-5.15,2.38-10.82,3.93,5.67,1.55,7.53,3.93,10.82,3.93,3.62,0,4.24-3.93,4.24-3.93S185.39,155.59,181.77,155.59Z" transform="translate(-59.59 -149.52)"/><path d="M318.23,155.59c-3.62,0-4.24,3.93-4.24,3.93s.62,3.93,4.24,3.93c3.29,0,5.15-2.38,10.82-3.93C323.38,158,321.52,155.59,318.23,155.59Z" transform="translate(-59.59 -149.52)"/></g></svg>